<svg class="icono-recogida" xmlns="http://www.w3.org/2000/svg" aria-hidden="true" viewBox="0 0 24 24" focusable="false">
                        <path fill-rule="evenodd" d="M18.4421,8.5917 C18.4971,8.6477 18.5431,8.7117 18.5811,8.7807 C19.3511,8.8577 19.9541,9.5067 19.9541,10.2937 L19.9541,11.3897 L21.9371,11.3897 L21.9371,17.6527 C21.9371,18.0257 21.6301,18.3317 21.2541,18.3317 L15.6021,18.3317 C15.2271,18.3317 14.9201,18.0257 14.9201,17.6527 L14.9201,11.3897 L16.9011,11.3897 L16.9011,10.2937 C16.9011,10.2487 16.9041,10.2027 16.9081,10.1597 L11.0341,11.4027 L11.0341,18.3107 L6.0501,18.3107 L6.0501,13.4637 L3.4761,17.9227 C3.3281,18.1727 3.0631,18.3107 2.7921,18.3107 C2.6541,18.3107 2.5171,18.2767 2.3891,18.2007 C2.0121,17.9797 1.8871,17.4957 2.1111,17.1197 C4.5991,12.9277 5.8451,10.8277 5.8491,10.8217 C6.4231,9.7327 7.6541,9.7107 7.8101,9.7107 C7.8101,9.7107 9.6981,9.6337 10.5341,9.4807 L17.6831,8.3847 C17.9651,8.3127 18.2501,8.4007 18.4421,8.5917 Z M8.3851,3.9997 C9.6761,3.9997 10.7221,5.0437 10.7221,6.3367 C10.7221,7.6237 9.6761,8.6707 8.3851,8.6707 C7.0971,8.6707 6.0501,7.6237 6.0501,6.3367 C6.0501,5.0437 7.0971,3.9997 8.3851,3.9997 Z"></path>
                    </svg>