<?xml version="1.0" encoding="UTF-8"?>
<svg width="26px" height="21.4px" viewBox="0 0 26 21.4" version="1.1" xmlns="http://www.w3.org/2000/svg" xmlns:xlink="http://www.w3.org/1999/xlink">
    <title>ADD TO CART</title>
    <g id="PDP" stroke="none" stroke-width="1" fill="none" fill-rule="evenodd">
        <g id="ADD-TO-CART" transform="translate(0, -2)">
            <g id="Icons/40px/Cart">
                <rect id="Rectangle" x="0" y="0" width="26" height="26"></rect>
                <path d="M9.75,23.4 C10.8269553,23.4 11.7,22.5269553 11.7,21.45 C11.7,20.3730447 10.8269553,19.5 9.75,19.5 C8.67304474,19.5 7.8,20.3730447 7.8,21.45 C7.8,22.5269553 8.67304474,23.4 9.75,23.4 Z M18.2,23.4 C19.2769553,23.4 20.15,22.5269553 20.15,21.45 C20.15,20.3730447 19.2769553,19.5 18.2,19.5 C17.1230447,19.5 16.25,20.3730447 16.25,21.45 C16.25,22.5269553 17.1230447,23.4 18.2,23.4 Z M4.55,2.6 C5.00522636,2.6 5.39986677,2.91501324 5.50075453,3.35891942 L6.06645,5.85 L17,5.85 L17,6.59999999 L17.0064088,6.73482934 C17.0742479,7.44477112 17.6722836,8 18.4,8 L20,7.998 L20,9.59999999 C20,10.3731986 20.6268014,11 21.4,11 L22.277,11 L21.550218,13.8657218 C21.489823,14.1274337 21.2746783,14.325046 21.0087876,14.3630303 L8.41035,16.1629 L8.57805,16.9 L20.475,16.9 C20.9818025,16.9 21.3982916,17.2866773 21.4455367,17.781101 L21.45,17.875 C21.45,18.4134776 21.0134776,18.85 20.475,18.85 L7.8,18.85 C7.34477364,18.85 6.95013323,18.5349868 6.84924547,18.0910806 L3.7713,4.55 L0.975,4.55 C0.468197524,4.55 0.0517083592,4.16332275 0.00446327574,3.66889901 L0,3.575 C0,3.03652237 0.436522369,2.6 0.975,2.6 L4.55,2.6 Z" id="Shape" fill="#FFFFFF"></path>
            </g>
            <path d="M22.6,2 C22.8209139,2 23,2.1790861 23,2.40000001 L23,4.999 L25.6,5 C25.8209139,5 26,5.1790861 26,5.40000001 L26,6.59999999 C26,6.8209139 25.8209139,7 25.6,7 L23,6.999 L23,9.59999999 C23,9.8209139 22.8209139,10 22.6,10 L21.4,10 C21.1790861,10 21,9.8209139 21,9.59999999 L21,6.999 L18.4,7 C18.1790861,7 18,6.8209139 18,6.59999999 L18,5.40000001 C18,5.1790861 18.1790861,5 18.4,5 L21,4.999 L21,2.40000001 C21,2.1790861 21.1790861,2 21.4,2 L22.6,2 Z" id="Combined-Shape" fill="#FFFFFF"></path>
        </g>
    </g>
</svg>