<svg class="iconos-header" xmlns="http://www.w3.org/2000/svg" aria-hidden="true" viewBox="0 0 36 36" focusable="false">
                                    <path fill-rule="evenodd" d="M13.5,26 C14.8807119,26 16,27.1192881 16,28.5 C16,29.8807119 14.8807119,31 13.5,31 C12.1192881,31 11,29.8807119 11,28.5 C11,27.1192881 12.1192881,26 13.5,26 Z M26.5,26 C27.8807119,26 29,27.1192881 29,28.5 C29,29.8807119 27.8807119,31 26.5,31 C25.1192881,31 24,29.8807119 24,28.5 C24,27.1192881 25.1192881,26 26.5,26 Z M9.75400975,5 C10.3341575,5 10.8403939,5.37037019 11.0164102,5.90379226 L11.0560348,6.05315786 L11.9493858,10.4583423 L29.6717358,10.4596526 C30.4527555,10.4596526 31.05292,11.1172849 30.9963002,11.8648775 L30.9760781,12.0154273 L29.2036777,21.1865373 C28.8840541,22.7744964 27.5051889,23.9278301 25.9073553,23.9969472 L25.6881906,23.9995909 L14.9580606,23.9993504 C13.317721,24.0303706 11.8814335,22.9474274 11.467539,21.4019742 L11.4175128,21.188425 L8.66561672,7.62019652 L5.3278484,7.62063323 C4.64688015,7.62063323 4.08563671,7.11479835 4.00893341,6.46312721 L4,6.31031661 C4,5.63833929 4.51260285,5.08450604 5.17299322,5.00881546 L5.3278484,5 L9.75400975,5 Z M28.0668097,13.0789755 L12.4805252,13.0789755 L14.0219443,20.6759951 C14.0962003,21.0449148 14.3991426,21.3200005 14.7845225,21.370713 L14.9326185,21.3789577 L25.7136327,21.3791982 C26.0947216,21.3864049 26.4317564,21.1531111 26.55926,20.8165789 L26.5969289,20.6858082 L28.0668097,13.0789755 Z"></path>
                                </svg>