<svg xmlns="http://www.w3.org/2000/svg" aria-hidden="true" class="header__main-link-icon icon icon--size-36 u-is-hidden-max-large" viewBox="0 0 36 36"><path fill-rule="evenodd" d="M13.5 26a2.5 2.5 0 1 1 0 5 2.5 2.5 0 0 1 0-5Zm13 0a2.5 2.5 0 1 1 0 5 2.5 2.5 0 0 1 0-5ZM9.754 5c.58 0 1.086.37 1.262.904l.04.15.893 4.404 17.723.002c.78 0 1.38.657 1.324 1.405l-.02.15-1.772 9.172a3.523 3.523 0 0 1-3.297 2.81l-.219.003h-10.73c-1.64.03-3.077-1.053-3.49-2.598l-.05-.214L8.666 7.62H5.328a1.322 1.322 0 0 1-1.32-1.157L4 6.31c0-.672.513-1.225 1.173-1.301L5.328 5h4.426Zm18.313 8.079H12.48l1.54 7.597a.88.88 0 0 0 .764.695l.148.008h10.78a.886.886 0 0 0 .846-.562l.038-.131 1.47-7.607Z"/></svg>