<svg class="icon icon--size-24 icon--dark" xmlns="http://www.w3.org/2000/svg" aria-hidden="true" viewBox="0 0 24 24" focusable="false">
                        <path fill-rule="evenodd" d="M8.93,4.0002 L8.93,5.9692 L4,5.9692 L4,18.0312 L8.93,18.0312 L8.93,20.0002 L2,20.0002 L2,4.0002 L8.93,4.0002 Z M15.623,5.7312 L21.685,11.3282 C21.887,11.5142 22.001,11.7742 22.001,12.0462 C22.001,12.3192 21.887,12.5792 21.685,12.7652 L15.623,18.3612 L14.255,16.9252 L18.473,13.0312 L7.354,13.0312 C6.801,13.0312 6.354,12.5902 6.354,12.0462 C6.354,11.5022 6.801,11.0622 7.354,11.0622 L18.473,11.0622 L14.255,7.1682 L15.623,5.7312 Z"></path>
                    </svg>