<svg xmlns="http://www.w3.org/2000/svg" xmlns:xlink="http://www.w3.org/1999/xlink" width="70px" height="67px" viewBox="0 0 70 67" version="1.1">
                                        <title>Financiación</title>
                                        <defs>
                                            <polygon id="path-1" points="0 0 54 0 54 44 0 44"></polygon>
                                            <polygon id="path-3" points="0 0 28 0 28 32 0 32"></polygon>
                                        </defs>
                                        <g id="Footer" stroke="none" stroke-width="1" fill="none" fill-rule="evenodd">
                                            <g id="D-footer-pictos-Servicios" transform="translate(-230.000000, -857.000000)">
                                                <g id="Group-16" transform="translate(0.000000, 750.000000)">
                                                    <g id="Group-4" transform="translate(180.000000, 107.000000)">
                                                        <g id="Group-15" transform="translate(50.000000, 0.000000)">
                                                            <path d="M50.00037,40.9594886 C50.00037,38.3058673 49.99247,35.6536213 50.00257,33 C49.99247,35.6536213 50.00037,38.3058673 50.00037,40.9594886 C50.00037,42.3058673 49.99917,43.6536213 49.99807,45 C49.99917,43.6536213 50.00037,42.3058673 50.00037,40.9594886" id="Fill-1" fill="#575756"></path>
                                                            <g id="Group-5" transform="translate(16.000000, 20.000000)">
                                                                <mask id="mask-2" fill="white">
                                                                    <use xlink:href="#path-1"></use>
                                                                </mask>
                                                                <g id="Clip-4"></g>
                                                                <path d="M40.5913529,0.0342193158 C39.8966422,-0.102769002 38.9669505,0.189145117 38.3511759,0.596301427 C37.2815188,1.3037263 36.372292,2.25650155 35.3405193,3.15435862 C34.3563763,2.30441675 33.4728524,1.38739361 32.4371817,0.707366395 C31.8105656,0.296032863 30.8685705,-0.0740198842 30.2024864,0.091840411 C25.3323245,1.3037263 21.4584872,3.90429287 19.3597373,8.69151243 C18.6489471,10.3119061 18.0970035,12.0035582 17.4705092,13.6624069 C15.945386,17.7011665 13.1412057,20.3360109 8.90984147,21.110517 C6.76906547,21.5026845 4.54533348,21.4450634 2.35826779,21.5670628 C0.909278914,21.6480272 0.00809188351,22.4252363 0,23.6562883 C-0.00810950538,24.9298496 0.943265286,25.768857 2.45206531,25.7648026 C4.01933651,25.759274 5.58782586,25.7456366 7.15229531,25.6757295 C13.785485,25.385044 19.339516,21.1955358 21.5113548,14.8934589 C21.9994674,13.478732 22.5106029,12.0680595 23.0732662,10.6820817 C24.2953138,7.67288449 26.5883585,5.79620597 29.5488273,4.71860549 C29.9470404,4.57326273 30.6130028,4.75841196 30.9813712,5.02980855 C31.9573526,5.75369659 32.8217515,6.6256303 33.7582649,7.40566513 C34.8960166,8.35156025 35.7822203,8.35008594 36.9144903,7.40013645 C37.9381014,6.541963 38.9086011,5.6138825 39.9552352,4.78716108 C40.2270044,4.57203413 40.7434998,4.4705522 41.0752019,4.56785691 C46.3300554,6.1032318 49.736367,10.6642671 49.7608518,16.179429 C49.7797331,20.7665105 49.7648717,25.3521176 49.7648717,29.9378477 C49.7663335,33.8119756 49.7567101,37.6862263 49.7690134,41.5603543 C49.7743732,43.1533503 50.6279306,44.0636161 51.9953035,43.9965349 C53.2906837,43.9347365 53.994896,43.0094818 53.9962359,41.3094752 C54.0017176,33.0470525 54.0000122,24.7831554 53.9975759,16.5207327 C53.994896,8.20068881 48.6992345,1.63962411 40.5913529,0.0342193158" id="Fill-3" fill="#222221"></path>
                                                            </g>
                                                            <g id="Group-8" transform="translate(0.000000, 7.000000)">
                                                                <mask id="mask-4" fill="white">
                                                                    <use xlink:href="#path-3"></use>
                                                                </mask>
                                                                <g id="Clip-7"></g>
                                                                <path d="M26.5369846,31.0564967 C27.7008123,30.6433045 28.2012148,29.5816891 27.8540681,28.4844579 C27.5393572,27.4943111 26.4697016,26.9304906 25.3327629,27.173531 C24.9935744,27.2460644 24.6680113,27.3753941 24.3317167,27.4666229 C19.1005209,28.8700803 13.188657,26.5238063 10.696773,21.8934975 C13.5519613,21.8934975 16.2561847,21.9014253 18.9592024,21.8908943 C20.6195741,21.8855697 21.6071154,21.0828503 21.584326,19.7955885 C21.5627424,18.5425227 20.6047429,17.7820455 19.0063487,17.7781407 C16.1351235,17.7689114 13.2638982,17.7781407 10.3941199,17.7715145 C9.98511625,17.7715145 9.57599197,17.7318755 9.12128886,17.7067905 L9.12128886,15.3276221 L10.4922712,15.3276221 C14.2555393,15.3276221 18.0188074,15.3368515 21.7807491,15.3209959 C23.100606,15.3157896 23.9307918,14.6119902 24.0342485,13.493697 C24.1539834,12.2090383 23.2257669,11.301956 21.6838036,11.291425 C18.2704556,11.2676416 14.8556606,11.2847988 11.4420713,11.2795925 C11.035841,11.2781726 10.62949,11.2425566 10.0429941,11.2148685 C10.3228578,10.6788545 10.4935976,10.305183 10.7035255,9.95529481 C13.5276043,5.25363579 19.2686079,3.07514719 24.6909213,4.63171758 C25.1672081,4.76909335 25.6825624,4.94468822 26.1560758,4.8919151 C27.1866638,4.77702115 27.8433366,4.16433233 27.980676,3.11869093 C28.1191006,2.06642332 27.5095742,1.26760867 26.2893155,0.850393375 C18.7238323,-1.73608113 10.0684363,1.74954795 6.5647746,8.97023601 C5.79126083,10.5665637 5.13458803,11.5898416 3.12055833,11.3587522 C1.97409396,11.2281209 1.22879566,12.2553036 1.26508991,13.3907539 C1.3000578,14.4627819 2.04017121,15.2259806 3.17023685,15.3091633 C3.69246415,15.3473824 4.2184294,15.3157896 4.80492527,15.3157896 L4.80492527,17.7768392 C3.95882298,17.7768392 3.11380591,17.7556589 2.27156216,17.7807439 C0.88574863,17.8229861 -0.0238987419,18.6745738 0.000458199896,19.8681219 C0.0232476158,21.01292 0.901785627,21.8301934 2.23249459,21.8842681 C3.12321107,21.921304 4.02055939,21.9423659 4.90729677,21.8790618 C5.66887323,21.8261704 6.0602724,22.074417 6.40621332,22.7728917 C8.73242185,27.4836618 12.5185999,30.4478309 17.7227861,31.6123893 C20.7071144,32.2804544 23.6603333,32.078473 26.5369846,31.0564967" id="Fill-6" fill="#E20811"></path>
                                                            </g>
                                                            <path d="M62.0259503,35.0015436 C60.7189281,35.0042808 60.0437448,35.928501 60.0281822,37.7383826 C60.024378,38.0451866 60.0269142,38.3505625 60.0269142,38.6573664 C60.0269142,46.2027449 60.0281822,53.7494324 60.024378,61.2946918 C60.024378,61.7781044 59.9832238,62.2600889 59.9587848,62.7952703 L45.0079171,62.7952703 L45.0079171,61.3384869 C45.0079171,53.5634221 45.0093004,45.7883572 45.0029601,38.0119832 C45.0029601,37.5179788 44.9925851,37.0094554 44.8820335,36.5327073 C44.6479038,35.5155414 43.7976131,34.8993153 42.8187875,35.0135635 C41.8127562,35.1304298 41.2158466,35.746537 41.0332462,36.76644 C40.9805641,37.0625332 41.0062711,37.3771918 41.0062711,37.6826866 C41.0050031,46.5307324 41.003735,55.3787781 41.0050031,64.2268238 C41.0062711,66.3408912 41.6249683,66.9968662 43.6380684,66.9968662 C49.5358072,67.0007935 55.4335461,67.0007935 61.3300169,66.9981753 C63.3816199,66.9968662 63.9977809,66.3674301 63.999049,64.2772834 C64.000317,55.4292377 64.000317,46.581192 63.999049,37.7331462 C63.999049,35.9271919 63.3250184,34.9989254 62.0259503,35.0015436" id="Fill-9" fill="#222221"></path>
                                                            <path d="M52.5540472,18.9998842 C57.8303479,18.974144 62.0039812,14.7676727 61.9999972,9.48501761 C61.9932287,4.23475443 57.7561682,3.10950668e-07 52.5040303,3.10950668e-07 C47.2048958,-0.00132889509 42.9839035,4.25892747 43.0000461,9.59295022 C43.0176106,14.8324564 47.2762967,19.0253908 52.5540472,18.9998842 M52.4676653,4.20632251 C55.4495913,4.19692363 57.8127091,6.51934833 57.8303479,9.47824916 C57.8491949,12.4143065 55.472546,14.8256879 52.5350794,14.8540913 C49.6096943,14.8823737 47.2061039,12.4979452 47.1872569,9.54569193 C47.1656313,6.56926566 49.4923841,4.21722898 52.4676653,4.20632251" id="Fill-11" fill="#222221"></path>
                                                            <path d="M50.0034354,39.9002393 C50.0034354,41.1761445 50.0020332,42.4533531 50.0007478,43.7292583 C50.0007478,45.0051635 50.0007478,46.2822535 50.0060062,47.5581587 C50.0112646,49.0878705 50.7127348,49.961856 51.9344357,49.9988251 C53.1978533,50.037216 53.9867297,49.1328968 53.9907027,47.5660976 C54.0023881,42.4995644 54.0037903,37.4330312 53.9907027,32.365313 C53.9867297,30.8435402 53.2500867,30.0026134 51.999523,30 C50.7361054,29.9972814 50.0138354,30.8329945 50.0060062,32.3573742 C49.994204,34.872097 50.0034354,37.3855165 50.0034354,39.9002393" id="Fill-13" fill="#222221"></path>
                                                        </g>
                                                    </g>
                                                </g>
                                            </g>
                                        </g>
                                    </svg>