<svg class="imagen-furgo" width="24" height="24" xmlns="http://www.w3.org/2000/svg" aria-hidden="true" viewBox="0 0 24 24" focusable="false">
                        <path fill-rule="evenodd" d="M6.59642334,14.7849875 C7.61279202,14.7849875 8.43475122,15.6163118 8.43475122,16.641985 C8.43475122,17.6686756 7.61279202,18.5 6.59642334,18.5 C5.58106197,18.5 4.75809547,17.6686756 4.75809547,16.641985 C4.75809547,15.6163118 5.58106197,14.7849875 6.59642334,14.7849875 Z M16.7087376,14.7849875 C17.724099,14.7849875 18.5470655,15.6163118 18.5470655,16.641985 C18.5470655,17.6686756 17.724099,18.5 16.7087376,18.5 C15.6933763,18.5 14.8704097,17.6686756 14.8704097,16.641985 C14.8704097,15.6163118 15.6933763,14.7849875 16.7087376,14.7849875 Z M13.0320819,5.5 C14.1350786,5.5 15.2642652,6.20413275 15.78907,7.27864746 L15.9824722,7.27864746 C18.9308479,7.33155917 21.305061,9.63932373 21.305061,12.6176425 L21.305061,15.2388071 C21.6888434,15.2388071 22.0001,15.5532248 22.0001,15.9409048 L21.9930489,16.0446932 C21.9426837,16.3825141 21.6535878,16.6430025 21.305061,16.6430025 L19.4667331,16.6430025 C19.4667331,15.1034753 18.2317797,13.8569975 16.7087376,13.8569975 C15.1856956,13.8569975 13.9507422,15.1034753 13.9507422,16.6430025 L9.35441881,16.6430025 C9.35441881,15.1034753 8.1194654,13.8569975 6.59642334,13.8569975 C5.07338129,13.8569975 3.83842788,15.1034753 3.83842788,16.6430025 C2.82709572,16.6430025 2.0001,15.807608 2.0001,14.786005 L2.0001,8.28498748 C2.0001,6.75258297 3.24109723,5.5 4.75809547,5.5 L13.0320819,5.5 Z M15.78907,8.28498748 L15.78907,11.6631966 C15.78907,12.1597527 16.1728525,12.6176425 16.7087376,12.6176425 L20.3853934,12.6176425 C20.3853934,10.1603006 18.2237213,8.28498748 15.78907,8.28498748 Z"></path>
                    </svg>