<svg class="icon icon--size-24 icon--dark" xmlns="http://www.w3.org/2000/svg" aria-hidden="true" viewBox="0 0 24 24" focusable="false">
                        <path fill-rule="evenodd" d="M11.7571,11.588 C12.6321,11.79 13.5431,12.237 14.2731,12.847 L5.1291,22.001 L2.0101,22.001 L2.0001,16.383 L2.0001,15.542 L2.0081,15.352 C2.1611,13.537 4.1341,12.042 5.9541,11.603 C6.4221,11.49 6.9161,11.514 7.3631,11.7 C7.8251,11.891 8.3241,12.004 8.8501,12.004 C9.3831,12.004 9.8881,11.889 10.3571,11.692 C10.7991,11.505 11.2921,11.481 11.7571,11.588 Z M17.4031,12.796 L19.9611,15.353 L13.3101,22.001 L10.7521,22.001 L10.7521,19.444 L17.4031,12.796 Z M19.7371,10.751 C19.8601,10.751 19.9811,10.789 20.0861,10.86 L20.1851,10.942 L21.8151,12.572 C22.0321,12.789 22.0591,13.122 21.8971,13.368 L21.8151,13.467 L20.7281,14.554 L18.2021,12.029 L19.2891,10.942 C19.4131,10.818 19.5731,10.751 19.7371,10.751 Z M8.8771,2 C11.1551,2 13.0031,3.918 13.0031,6.285 C13.0031,8.652 11.1551,10.572 8.8771,10.572 C6.5971,10.572 4.7501,8.652 4.7501,6.285 C4.7501,3.918 6.5971,2 8.8771,2 Z"></path>
                    </svg>