<svg class="icon icon--size-24 icon--dark" xmlns="http://www.w3.org/2000/svg" aria-hidden="true" viewBox="0 0 24 24" focusable="false">
                        <path fill-rule="evenodd" d="M12.0354959,2 C17.542583,2.01913241 22,6.4889314 22,11.9999383 C22,17.4337027 17.6666581,21.8552419 12.2664307,21.9964586 L12.2664307,21.9964586 L12,21.9999383 L11.7335693,21.9964586 C6.33334185,21.8552419 2,17.4337027 2,11.9999383 C2,6.67016184 6.17503653,2.29779054 11.4646001,2.01432944 L11.4646001,2.01432944 L11.7299929,2.0035783 Z M14.7556935,15.3961065 L9.24428901,15.3959994 C9.73291692,18.3851703 10.8198199,20.4848912 11.9065226,20.5996405 L11.9065226,20.5996405 L12,20.6045895 C13.1173356,20.6045895 14.253044,18.470942 14.7556935,15.3961065 Z M19.9086779,15.3957927 L16.1744704,15.3966359 C15.8807786,17.3537025 15.3336525,19.0320707 14.596272,20.2069846 C16.9881616,19.4500625 18.9277173,17.6775206 19.9086779,15.3957927 Z M7.8254858,15.3965812 L4.09129109,15.395754 C5.07218388,17.677397 7.01152299,19.4496683 9.40272203,20.2057269 C8.66599362,19.0316282 8.11909692,17.3535469 7.8254858,15.3965812 Z M7.66388714,9.99491864 L3.63034678,9.99497706 C3.47668161,10.6385304 3.39534884,11.3099109 3.39534884,11.9999383 C3.39534884,12.6887584 3.47627483,13.3586732 3.62914019,14.0006914 L7.66355688,14.001103 C7.60942568,13.3538792 7.58139535,12.6845428 7.58139535,11.9999383 C7.58139535,11.3139783 7.6095368,10.6433467 7.66388714,9.99491864 Z M14.9322229,9.99471468 L9.06776845,9.99489757 C9.00865591,10.6373788 8.97674419,11.3086002 8.97674419,11.9999383 C8.97674419,12.6898407 9.00852349,13.3597098 9.0674005,14.0009758 L14.9325793,14.0011961 C14.9914692,13.3598632 15.0232558,12.6899197 15.0232558,11.9999383 C15.0232558,11.3090871 14.9913296,10.6377222 14.9322229,9.99471468 Z M20.3699048,9.9951787 L16.3360105,9.99501237 C16.3904313,10.6435347 16.4186047,11.3141522 16.4186047,11.9999383 C16.4186047,12.6845428 16.3905743,13.3538792 16.3364348,14.0011134 L20.370854,14.0006986 C20.5237252,13.3586732 20.6046512,12.6887584 20.6046512,11.9999383 C20.6046512,11.3096852 20.5233881,10.6384162 20.3699048,9.9951787 Z M9.40372804,3.79289208 L9.37304398,3.80328821 C6.99487013,4.56448373 5.07016436,6.33151527 4.09340013,8.60003523 L7.82613085,8.59923695 C8.11996781,6.64388509 8.66685043,4.96700472 9.40372804,3.79289208 L9.40372804,3.79289208 Z M11.9981395,3.39528719 L11.9065226,3.4002362 C10.8203039,3.51493435 9.7338851,5.61283643 9.24494225,8.59988386 L14.7554523,8.60005838 C14.2795562,5.68427575 13.2373314,3.60778481 12.1858721,3.41191822 L12.1858721,3.41191822 L12.0927841,3.39951868 L11.9981395,3.39528719 Z M14.5954217,3.79356312 L14.6779388,3.92848354 C15.3735893,5.09488564 15.8907644,6.71883033 16.1736248,8.59949502 L19.9071261,8.60044325 C18.9254767,6.3199842 16.9861877,4.54888516 14.5954217,3.79356312 L14.5954217,3.79356312 Z"></path>
                    </svg>