<svg width="16" height="16" viewBox="0 0 16 16" xmlns="http://www.w3.org/2000/svg">
                        <path d="M3.5 10a1.5 1.5 0 1 1 0 3 1.5 1.5 0 0 1 0-3zm8 0a1.5 1.5 0 1 1 0 3 1.5 1.5 0 0 1 0-3zM9 3c.889 0 1.687.386 2.236 1H12a4 4 0 0 1 4 4v3a1 1 0 0 1-1 1l-1.563.001A2.004 2.004 0 0 0 11.5 9.5a2 2 0 0 0-1.937 2.501H5.437A2.004 2.004 0 0 0 3.5 9.5a2 2 0 0 0-1.937 2.501L1 12a1 1 0 0 1-1-1V5a2 2 0 0 1 2-2h7zm3.5 2H11v3h4v-.5A2.5 2.5 0 0 0 12.5 5z" fill="#222221" fill-rule="evenodd"></path>
                    </svg>